<svg width="100" height="100" viewBox="0 0 100 100" fill="none" xmlns="http://www.w3.org/2000/svg">
<path d="M50 100C77.6142 100 100 77.6142 100 50C100 22.3858 77.6142 0 50 0C22.3858 0 0 22.3858 0 50C0 77.6142 22.3858 100 50 100Z" fill="#663399"/>
<path d="M22.1429 77.8571C14.6429 70.3571 10.7144 60.3571 10.7144 50.7143L49.6429 89.2857C39.6429 88.9286 29.6429 85.3571 22.1429 77.8571ZM58.5715 88.2143L11.7858 41.4286C15.7144 23.9286 31.4286 10.7143 50.0001 10.7143C63.2144 10.7143 74.6429 17.1429 81.7858 26.7857L76.4286 31.4286C70.3572 23.2143 60.7144 17.8571 50.0001 17.8571C36.0715 17.8571 24.2858 26.7857 19.6429 39.2857L60.7144 80.3571C71.0715 76.7857 78.9286 67.8571 81.4286 57.1429H64.2858V50H89.2858C89.2858 68.5714 76.0715 84.2857 58.5715 88.2143Z" fill="white"/>
</svg>
